<svg xmlns="http://www.w3.org/2000/svg" width="640" height="480" viewBox="0 0 640 480">
  <defs>
    <filter id="grain1"><feTurbulence type="fractalNoise" baseFrequency="0.9" numOctaves="2" stitchTiles="stitch" result="n"/><feColorMatrix in="n" type="matrix" values="0 0 0 0 0  0 0 0 0 0  0 0 0 0 0  0 0 0 0.03 0"/></filter>
  </defs>
  <rect width="640" height="480" fill="#efe8d8"/>
  <rect width="640" height="480" filter="url(#grain1)"/>
  <g transform="rotate(-1 320 240)" stroke="#2a2a2a" fill="none" stroke-width="2.4" stroke-linecap="round" opacity="0.85">
    <path d="M90 120 C 140 110, 180 130, 230 118 S 320 128, 380 116"/>
    <path d="M90 158 C 150 150, 210 168, 270 154 S 400 160, 470 150"/>
    <path d="M90 196 C 160 188, 220 204, 300 192 S 420 198, 500 188"/>
    <path d="M90 234 C 130 226, 200 240, 260 230"/>
  </g>
  <g transform="rotate(6 520 380)">
    <circle cx="520" cy="380" r="46" fill="none" stroke="#8a1f1f" stroke-width="3" opacity="0.75"/>
    <text x="520" y="374" text-anchor="middle" font-family="Georgia, serif" font-size="13" fill="#8a1f1f" opacity="0.8">PINNED</text>
    <text x="520" y="390" text-anchor="middle" font-family="Georgia, serif" font-size="11" fill="#8a1f1f" opacity="0.8">03</text>
  </g>
  <rect x="0" y="0" width="640" height="480" fill="none" stroke="#d8cfb8" stroke-width="10"/>
</svg>
